inDegrees=yes
name=ik_S53_A03_T02
DataType=double
version=3
OpenSimVersion=4.3-2021-08-27-4bc7ad9
endheader
time	pelvis_tilt	pelvis_list	pelvis_rotation	pelvis_tx	pelvis_ty	pelvis_tz	hip_flexion_r	hip_adduction_r	hip_rotation_r	knee_angle_r	knee_angle_r_beta	ankle_angle_r	subtalar_angle_r	mtp_angle_r	hip_flexion_l	hip_adduction_l	hip_rotation_l	knee_angle_l	knee_angle_l_beta	ankle_angle_l	subtalar_angle_l	mtp_angle_l	lumbar_extension	lumbar_bending	lumbar_rotation	arm_flex_r	arm_add_r	arm_rot_r	elbow_flex_r	pro_sup_r	wrist_flex_r	wrist_dev_r	arm_flex_l	arm_add_l	arm_rot_l	elbow_flex_l	pro_sup_l	wrist_flex_l	wrist_dev_l
35.61666666666593	2.126746898016691	-0.4210023801188205	-80.32772507543795	0	0.9399999999999999	0	14.4995217960466	-4.621403164180854	6.172312927846421	14.22385580219812	0.2482531160772565	0	0	0	-5.266538693779098	4.556628362669684	6.247588347087749	-5.733780148741801	-0.1000733421810346	0	0	0	0	0	0	42.70013114139324	-42.70013114139324	4.97265536498282	84.63442671024028	85.02734490828789	0	0	42.70013114139324	-42.70013114139324	4.97265536498282	84.63442671024028	85.02734490828249	0	0
35.63333333333259	2.196405910841179	-0.262687558496438	-80.01437554502712	0	0.9399999999999999	0	14.76850265733961	-4.959742653580255	6.137346159430638	9.95819549315641	0.1738032989128398	0	0	0	-5.729821442114537	4.604221539437501	6.833142128601644	-5.450105621070284	-0.09512228766912689	0	0	0	0	0	0	42.70149120311666	-42.70149120311666	4.972687682428822	84.63485877343575	85.02731259084312	0	0	42.70149120311666	-42.70149120311666	4.972687682428822	84.63485877343575	85.02731259083775	0	0
35.64999999999926	2.209525943049235	-0.3111852390785907	-80.03690556357861	0	0.9399999999999999	0	14.91584056167616	-4.969291153852361	6.077238698592945	6.066440511124028	0.105879360795482	0	0	0	-6.347184442776942	4.579584717120508	6.968762900950539	-5.083824786254312	-0.0887294811146347	0	0	0	0	0	0	42.70067291680382	-42.70067291680382	4.972675561281724	84.63469672540282	85.02732471198983	0	0	42.70067291680382	-42.70067291680382	4.972675561281724	84.63469672540282	85.02732471198441	0	0
35.66666666666593	2.301688191247758	-0.05928291177096329	-79.63248399913664	0	0.9399999999999999	0	15.24321244606407	-5.068972167437071	5.231001997377637	2.437966096828581	0.04255053544165362	0	0	0	-6.688640920745449	4.650232235942219	7.525776511146703	-4.667412129085211	-0.08146170920005552	0	0	0	0	0	0	42.69865131699716	-42.69865131699716	4.972639376926216	84.63421297029952	85.02736089634399	0	0	42.69865131699716	-42.69865131699716	4.972639376926216	84.63421297029952	85.02736089633858	0	0
35.68333333333259	2.298141785097838	-0.06728590385942522	-79.64049794809097	0	0.9399999999999999	0	15.15854045864788	-4.939859253828233	4.554502026286513	-0.7346471762542742	-0.01282201206611619	0	0	0	-7.22273493368505	4.625265585574994	7.532003019515202	-4.152057847329728	-0.0724670801691718	0	0	0	0	0	0	42.69554131958599	-42.69554131958599	4.972581789920184	84.63344307806179	85.0274184833479	0	0	42.69554131958599	-42.69554131958599	4.972581789920184	84.63344307806179	85.02741848334244	0	0
35.69999999999926	2.362537023793139	0.07743240905209148	-79.32594216922358	0	0.9399999999999999	0	15.23136016086561	-4.963393214740477	4.113755652613603	-3.159798390211271	-0.05514888560840325	0	0	0	-7.664891143547035	4.6431058189668	7.816738381196461	-3.655978273269662	-0.0638088582499326	0	0	0	0	0	0	42.6962888944854	-42.6962888944854	4.972599619531025	84.63368144855033	85.02740065373774	0	0	42.6962888944854	-42.6962888944854	4.972599619531025	84.63368144855033	85.0274006537323	0	0
35.71666666666592	2.350721451605311	0.1959412867657676	-79.05762351591555	0	0.9399999999999999	0	15.39696554141185	-4.801658251659982	4.538764060628609	-4.63938901329846	-0.08097261356290911	0	0	0	-8.078837625335916	4.56960939386637	8.033652972204131	-3.054648663209395	-0.05331367666464732	0	0	0	0	0	0	42.69689389453512	-42.69689389453512	4.972614069819854	84.63387463967506	85.02738620344944	0	0	42.69689389453512	-42.69689389453512	4.972614069819854	84.63387463967506	85.02738620344401	0	0
35.73333333333259	2.268785154788725	0.2061322336525192	-78.76938896311191	0	0.9399999999999999	0	15.40071281577251	-4.803731519061509	4.241281985837986	-4.6270807861767	-0.08075779447455114	0	0	0	-8.505531754129185	4.444955556307273	8.252530295499044	-2.834706548665105	-0.04947496260205095	0	0	0	0	0	0	42.69710204570958	-42.69710204570958	4.972619019973337	84.63394082005141	85.02738125329611	0	0	42.69710204570958	-42.69710204570958	4.972619019973337	84.63394082005141	85.02738125329067	0	0
35.74999999999925	2.20717447498687	0.1738177510084166	-78.61802531103154	0	0.9399999999999999	0	15.38864842345328	-4.606361788210019	5.112215404058375	-5.121548273082169	-0.08938788016511352	0	0	0	-8.930149885461368	4.384020795100389	8.326388768837903	-3.158801189990903	-0.05513148118125621	0	0	0	0	0	0	42.69743780121865	-42.69743780121865	4.972627064138231	84.63404836540803	85.02737320913157	0	0	42.69743780121865	-42.69743780121865	4.972627064138231	84.63404836540803	85.02737320912614	0	0
35.76666666666592	2.067953779784114	0.04692835118603045	-78.23207298163929	0	0.9399999999999999	0	15.26678918372988	-4.49022953785635	4.854838015058155	-4.458120827410945	-0.07780888689005486	0	0	0	-9.078618486869791	4.091114042407511	8.689079205160132	-2.005521540940657	-0.03500295410908472	0	0	0	0	0	0	42.69800692044026	-42.69800692044026	4.97264064976248	84.63422999651182	85.02735962350788	0	0	42.69800692044026	-42.69800692044026	4.97264064976248	84.63422999651182	85.02735962350245	0	0
35.78333333333259	1.846684555321641	0.05157309678371168	-77.82736088569348	0	0.9399999999999999	0	14.64503853695285	-4.710077123086783	5.962583893303655	-5.446380683112094	-0.09505727523732396	0	0	0	-9.330879074432366	3.751795757717503	8.744112026143599	-0.8409532937158287	-0.01467740383083215	0	0	0	0	0	0	42.69870226691027	-42.69870226691027	4.972657273803889	84.63445224932022	85.02734299946715	0	0	42.69870226691027	-42.69870226691027	4.972657273803889	84.63445224932022	85.02734299946172	0	0
35.79999999999925	1.653066432500174	-0.01595819099652194	-77.26564679582167	0	0.9399999999999999	0	13.70301781281622	-4.768601620180165	5.891625776485592	-4.990108051410386	-0.08709381552738971	0	0	0	-9.438525462164852	3.350156536586605	9.122844317325978	0.5454528289634276	0.009519947779729301	0	0	0	0	0	0	42.70736980811088	-42.70736980811088	4.972835925040223	84.6368406861198	85.02716434823762	0	0	42.70736980811088	-42.70736980811088	4.972835925040223	84.6368406861198	85.02716434823219	0	0
35.81666666666592	1.39922478093512	-0.06883164740396007	-76.59905243457249	0	0.9399999999999999	0	12.27488177032562	-4.892853981470288	5.204566664165208	-5.459645379437909	-0.09528878786248662	0	0	0	-9.799333761906022	2.808892887909592	8.97883158230656	1.90806165588837	0.03330195822630711	0	0	0	0	0	0	42.7120765648156	-42.7120765648156	4.972932299073207	84.6381291362012	85.02706797420826	0	0	42.7120765648156	-42.7120765648156	4.972932299073207	84.6381291362012	85.02706797420285	0	0
35.83333333333258	1.404690003322827	-0.07422386571007289	-76.60811638165548	0	0.9399999999999999	0	12.56237836155747	-4.920493895604491	6.186948205147936	-4.755485040074755	-0.08299887147863896	0	0	0	-10.09404922759511	2.630736741988934	7.954732760884905	3.494387815819747	0.06098857272762778	0	0	0	0	0	0	42.72023874093308	-42.72023874093308	4.973098151630779	84.64034646241693	85.02690212165697	0	0	42.72023874093308	-42.72023874093308	4.973098151630779	84.64034646241693	85.0269021216516	0	0
35.84999999999925	0.9840013610685054	-0.1235489239250165	-75.9559267950728	0	0.9399999999999999	0	12.63214866400878	-4.381929429622295	5.872887071835653	-3.726473535611045	-0.06503923268484689	0	0	0	-10.19903936847207	1.887831776800313	7.130238784623298	5.426204676354951	0.09470513748950719	0	0	0	0	0	0	42.73120237092289	-42.73120237092289	4.973319457982324	84.6433051639777	85.02668081531378	0	0	42.73120237092289	-42.73120237092289	4.973319457982324	84.6433051639777	85.02668081530844	0	0
35.86666666666591	0.7549799125835729	-0.1783519617333496	-75.66178402376184	0	0.9399999999999999	0	12.60391638231673	-3.865866297670908	5.530982100236046	-2.576641989289626	-0.04497088635824044	0	0	0	-10.14955355034397	1.457143959716911	5.743879507785139	6.814466886809076	0.1189348839429461	0	0	0	0	0	0	42.7413656737217	-42.7413656737217	4.973523708372499	84.64603583940168	85.02647656493129	0	0	42.7413656737217	-42.7413656737217	4.973523708372499	84.64603583940168	85.02647656492599	0	0
35.88333333333258	-0.002639357072921482	-0.3213070271261703	-74.90072784236875	0	0.9399999999999999	0	10.01265500816186	-2.208430013816479	6.998601338603113	-4.435448499734699	-0.07741318012301333	0	0	0	-9.864196403602142	0.3897859968551861	4.354362487178382	9.446228727794688	0.1648677931964925	0	0	0	0	0	0	42.74526844380505	-42.74526844380505	4.973604099030365	84.64711060375646	85.0263961742764	0	0	42.74526844380505	-42.74526844380505	4.973604099030365	84.64711060375646	85.02639617427111	0	0
35.89999999999925	-0.195034569974836	-0.4319656176163654	-74.71370932868784	0	0.9399999999999999	0	9.964887519853635	-1.807868048705416	6.954733467267155	-3.582517901194682	-0.06252673288748409	0	0	0	-9.144948828899242	0.05068251305969627	3.793440116674189	12.58998411964493	0.2197366756616037	0	0	0	0	0	0	42.76580114832743	-42.76580114832743	4.974019962813919	84.6526703941869	85.02598031050852	0	0	42.76580114832743	-42.76580114832743	4.974019962813919	84.6526703941869	85.02598031050334	0	0
35.91666666666591	-0.5571824048137377	-0.7002212409928943	-74.43422593806029	0	0.9399999999999999	0	7.802097907536751	-1.219890715906062	6.447285033617717	-4.535210815164497	-0.07915436099667644	0	0	0	-8.481863790217638	-1.036665659250704	2.822500288860202	16.00387554972086	0.2793203214220464	0	0	0	0	0	0	42.77662164745951	-42.77662164745951	4.974236537701068	84.6555658380456	85.02576373562952	0	0	42.77662164745951	-42.77662164745951	4.974236537701068	84.6555658380456	85.02576373562439	0	0
35.93333333333258	-0.8247660509849267	-0.8844317306145324	-74.20715317067209	0	0.9399999999999999	0	6.698068873828777	-0.8877494162201804	6.151924964256875	-5.402826571100539	-0.09429711257993993	0	0	0	-7.478683495496998	-1.980981840788366	1.73300165349676	19.57420352784538	0.3416343000163914	0	0	0	0	0	0	42.77755168316894	-42.77755168316894	4.974258172839369	84.6558550853903	85.02574210049205	0	0	42.77755168316894	-42.77755168316894	4.974258172839369	84.6558550853903	85.02574210048692	0	0
35.94999999999924	-1.066222451371894	-0.8952954800770778	-74.05101046823007	0	0.9399999999999999	0	5.840399627939412	-0.4343817457794731	6.459437761638044	-6.290466922171521	-0.1097893592796869	0	0	0	-7.407911367923436	-2.2374214977118	1.858020332591014	19.59102116161679	0.3419278230980972	0	0	0	0	0	0	42.77788603068022	-42.77788603068022	4.97426595642404	84.65595914672028	85.02573431690773	0	0	42.77788603068022	-42.77788603068022	4.97426595642404	84.65595914672028	85.0257343169026	0	0
35.96666666666591	-1.1869601790159	-0.8477244023954774	-73.98252040872536	0	0.9399999999999999	0	5.908896380998907	-0.340753336020246	6.384855697344705	-6.310469709731231	-0.1101384737821808	0	0	0	-5.915794094978148	-2.74305950898253	1.679306528157599	22.14026189555049	0.3864204673311969	0	0	0	0	0	0	42.77879993907572	-42.77879993907572	4.974286811866969	84.65623796984629	85.02571346146566	0	0	42.77879993907572	-42.77879993907572	4.974286811866969	84.65623796984629	85.02571346146054	0	0
35.98333333333257	-1.759352349397356	-0.4692529308524195	-73.55900075692031	0	0.9399999999999999	0	5.664651578572477	0.28878762336714	6.453402004747057	-7.081657935912685	-0.1235982474816619	0	0	0	-3.874325985716483	-3.400280194738681	2.317106782025601	25.74141535468814	0.449272452062732	0	0	0	0	0	0	42.77959568470393	-42.77959568470393	4.974305164351648	84.65648333021615	85.02569510898165	0	0	42.77959568470393	-42.77959568470393	4.974305164351648	84.65648333021615	85.02569510897654	0	0
35.99999999999924	-2.00951656428265	-0.3896444127104174	-73.4026377880793	0	0.9399999999999999	0	5.828053696032307	1.261884955087594	6.656201537797696	-4.805192360491581	-0.08386642788225639	0	0	0	-3.768664461358347	-3.771006766474421	2.4331866189431	27.91496036851861	0.4872079689943793	0	0	0	0	0	0	42.79708770928075	-42.79708770928075	4.97465035435035	84.66109825906625	85.0253499189959	0	0	42.79708770928075	-42.79708770928075	4.97465035435035	84.66109825906625	85.02534991899084	0	0
